/* XPM */
static char *result[] = {
/* columns rows colors chars-per-pixel */
"32 32 247 2 ",
"   c #0C1317",
".  c #0D1614",
"X  c #1F1E1C",
"o  c #291B2A",
"O  c #2E1F2C",
"+  c #292321",
"@  c #3B292A",
"#  c #3E2B2B",
"$  c #3F2C2B",
"%  c #39282C",
"&  c #402E2A",
"*  c #412B2F",
"=  c #4C362E",
"-  c #472D33",
";  c #452A34",
":  c #4A2E33",
">  c #4C3232",
",  c #503632",
"<  c #563538",
"1  c #56343B",
"2  c #56323F",
"3  c #644233",
"4  c #634431",
"5  c #654432",
"6  c #664434",
"7  c #694633",
"8  c #694733",
"9  c #694734",
"0  c #6B4A33",
"q  c #734E37",
"w  c #744D3A",
"e  c #7B5439",
"r  c #653E40",
"t  c #673C43",
"y  c #743F51",
"u  c #7B474D",
"i  c #764150",
"p  c #774151",
"a  c #7E4553",
"s  c #794054",
"d  c #7C4354",
"f  c #80553A",
"g  c #86593B",
"h  c #804554",
"j  c #814554",
"k  c #814654",
"l  c #824654",
"z  c #824754",
"x  c #834754",
"c  c #844954",
"v  c #844A54",
"b  c #854A54",
"n  c #864A54",
"m  c #864B54",
"M  c #874C54",
"N  c #884D53",
"B  c #894E53",
"V  c #8A4E53",
"C  c #8C4E53",
"Z  c #884A56",
"A  c #884C54",
"S  c #894D57",
"D  c #8B4D57",
"F  c #8B4A5A",
"G  c #8B5051",
"H  c #8D5053",
"J  c #8E5053",
"K  c #8E5153",
"L  c #8F5153",
"P  c #8F5253",
"I  c #915353",
"U  c #925453",
"Y  c #935553",
"T  c #945753",
"R  c #955753",
"E  c #935454",
"W  c #965754",
"Q  c #985656",
"!  c #9C5C53",
"~  c #9A5A54",
"^  c #9A5B54",
"/  c #9B5B54",
"(  c #9B5A56",
")  c #9A5F54",
"_  c #905058",
"`  c #925258",
"'  c #965458",
"]  c #9E6842",
"[  c #9C6053",
"{  c #A76C47",
"}  c #AA7045",
"|  c #AB7346",
" . c #AF7247",
".. c #B27449",
"X. c #B87A49",
"o. c #A06153",
"O. c #A26154",
"+. c #A76456",
"@. c #AB6753",
"#. c #AC6753",
"$. c #AC6757",
"%. c #AC6853",
"&. c #AD6954",
"*. c #AE6A54",
"=. c #AA645A",
"-. c #B06C53",
";. c #B16D53",
":. c #B26E54",
">. c #B16959",
",. c #B36958",
"<. c #B36B58",
"1. c #B36A5A",
"2. c #AF7054",
"3. c #B47153",
"4. c #B47054",
"5. c #BE7652",
"6. c #B87254",
"7. c #B97254",
"8. c #B97354",
"9. c #BC7554",
"0. c #BD7754",
"q. c #BF7853",
"w. c #BC7358",
"e. c #C37654",
"r. c #C07953",
"t. c #C17953",
"y. c #C27A53",
"u. c #C27B53",
"i. c #C37B53",
"p. c #C67B53",
"a. c #C77B53",
"s. c #C37C53",
"d. c #C47C53",
"f. c #C57D53",
"g. c #C77D53",
"h. c #C67E53",
"j. c #C67F53",
"k. c #C17955",
"l. c #C87D53",
"z. c #C87E53",
"x. c #C97E53",
"c. c #C97F53",
"v. c #C98E42",
"b. c #D9924F",
"n. c #DE974F",
"m. c #C58052",
"M. c #C88053",
"N. c #C88153",
"B. c #C98153",
"V. c #CA8053",
"C. c #CB8053",
"Z. c #CB8153",
"A. c #CA8253",
"S. c #CB8353",
"D. c #CC8153",
"F. c #CC8253",
"G. c #CD8253",
"H. c #CD8353",
"J. c #CE8353",
"K. c #CE8453",
"L. c #CF8453",
"P. c #CF8553",
"I. c #CD8254",
"U. c #CE8354",
"Y. c #CF8354",
"T. c #CF8454",
"R. c #D08553",
"E. c #D18553",
"W. c #D08652",
"Q. c #D18652",
"!. c #D28652",
"~. c #D28752",
"^. c #D08455",
"/. c #D28656",
"(. c #D48556",
"). c #D58656",
"_. c #D48852",
"`. c #D48952",
"'. c #D58A52",
"]. c #D48E53",
"[. c #D58F53",
"{. c #D58856",
"}. c #D48A57",
"|. c #DF8F56",
" X c #D48458",
".X c #D98858",
"XX c #D98958",
"oX c #DB8A58",
"OX c #DD8C58",
"+X c #DD8D59",
"@X c #DB9052",
"#X c #D89253",
"$X c #E0994E",
"%X c #E39C4E",
"&X c #E79F4D",
"*X c #E59D4E",
"=X c #E79D4E",
"-X c #E59E4E",
";X c #E69F4E",
":X c #E79F4E",
">X c #E69F4F",
",X c #E79F4F",
"<X c #E89E4E",
"1X c #E19950",
"2X c #E89D52",
"3X c #EB9A55",
"4X c #EF9F55",
"5X c #E7A04E",
"6X c #E9A24D",
"7X c #E9A34D",
"8X c #EAA24D",
"9X c #EAA34D",
"0X c #E8A04E",
"qX c #E8A14E",
"wX c #E9A14E",
"eX c #E9A54D",
"rX c #EBA54D",
"tX c #ECA54D",
"yX c #EDA74D",
"uX c #EEA74D",
"iX c #EBA94E",
"pX c #EFA94D",
"aX c #EFAB4F",
"sX c #EEAC4E",
"dX c #EFAE4F",
"fX c #F0AE4F",
"gX c #F8B34D",
"hX c #E5A553",
"jX c #EFA054",
"kX c #E7A853",
"lX c #E9A952",
"zX c #E9A953",
"xX c #EDAD51",
"cX c #ECAD52",
"vX c #EDAE52",
"bX c #F0AE51",
"nX c #F3AC57",
"mX c #F8AE50",
"MX c #F0B151",
"NX c #F1B351",
"BX c #F2B350",
"VX c #F1B353",
"CX c #F2B451",
"ZX c #F2B651",
"AX c #FFB352",
"SX c #F4B851",
"DX c None",
/* pixels */
"DXDXDXDXDXDXDXDXDXDXDXDXDXDXDXDXDXDXDXDXDXDXDXDXDXDXDXDXDXDXDXDX",
"DXDXDXDXDXDXDXDXDXDXDXDXDXDXDXDXDXDXDXDXDXDXDXDXDXDXDXDXDXDXDXDX",
"DXDXDXDXDXDXDXDXDXDXDXDXDXDXDXDXDXDXDXDXDXDXDXDXDXDXDXDXDXDXDXDX",
"DXDXDXDXDXDXDXDXDXDXDXDXDXDXDXDXDXDXDXDXV B B B V DXDXDXDXDXDXDX",
"DXDXDXDXDXDXDXDXDXDXDXDXDXDXDXDXDXDXv N q.q.q.q.y.P DXDXDXDXDXDX",
"DXDXDXDXDXDXDXDXDXDXDXDXDXDXDXDXM m 0.S.0X0X0X0X8XP.L DXDXDXDXDX",
"DXDXDXDXDXDXDXDXDXDXDXDXDXDXDXC 3.`.-X9XqXqXqXqXqX8X%XJ DXDXDXDX",
"DXDXDXDXDXDXDXDXDXDXDXDXDXDX<.@X1XrXqXqXqXqXqXqXqXqX6XN.d DXDXDX",
"DXDXDXDXDXDXDXDXDXDXDXDXDXe 2XyX6XqXqXqXqXqXqXqXqXqXrX$XE DXDXDX",
"DXDXDXDXDXDXh h h h h v r |.rXqXqXqXqXqXqXqXqXqXqXqXqXtXm.s DXDX",
"DXDXDXDXz x 4.4.4.4.6.V _ '.9XqXqXqXqXqXqXqXqXqXqXqXqXrXn.! DXDX",
"DXDXDXz 4.b.<X<X<X<XwXj.n o.uXqXqXqXqXqXqXqXqXqXqXqX5XiXbX,.DXDX",
"DXDXz 4.=XtX6X6X6X6X6X6Xi.) NX&XqXqXqXqXqXqXqXqXqXqX6X>XS..X5 DX",
"DXDX&.,X9XqXqXqXqXqXqXqXwX7.[ gX9X:X5X5X5X5X5X5X5X5XaXzXl.oX8 DX",
"DX- }.pXqXqXqXqXqXqXqXqX5X5.2.VXxXfXdXdXdXdXdXdXdXdXlXx.Z.oX8 DX",
"DX9 4XeXqXqXqXqXqXqXqXqX;XG.J.e.#XkXhXhXhXhXhXhXhXhXc.Z.Z.oX8 DX",
"DX6 3X7XqXqXqXqXqXqXqXqX*XZ.Z.A.z.p.a.a.a.a.a.a.a.a.Z.Z.Z.oX8 DX",
"DX3 nXsX5XqXqXqXqXqXqX5XMXZ.Z.Z.Z.Z.Z.Z.Z.Z.Z.Z.Z.Z.Z.Z.Z.OX0 DX",
"DX7 +XcXiX5XqXqXqXqX5XBX[.C.Z.Z.Z.Z.Z.Z.Z.Z.Z.Z.Z.Z.Z.Z.P.w.: DX",
"DX4 (.I.vXZXCXCXCXCXSX].x.V.z.Z.Z.Z.Z.Z.Z.Z.Z.Z.Z.Z.Z.F.R.1.; DX",
"DXDXg  Xh.Z.Z.Z.Z.Z.Z.Z.H.9.T Q.Z.Z.Z.Z.Z.Z.Z.Z.Z.Z.Z.F.*.j * DX",
"DXDXq G k.K.Z.Z.Z.Z.Z.Z.H.9.R Q.Z.Z.Z.Z.Z.Z.Z.Z.Z.Z.K.u.F 1 DXDX",
"DXDXo 2 >.P.D.Z.Z.Z.Z.Z.K.t.R Q.Z.Z.Z.Z.Z.Z.Z.Z.Z.E.R.$.i , DXDX",
"DXQ | = y +.Q.Q.K.B.Z.D.L.~ Y !.Z.Z.Z.Z.Z.Z.Z.B.!.%.=.p $ } DXDX",
"DX:.AXv.& a / W -._.L.R.^ A r.G.Z.Z.Z.Z.Z.Z.G._.@.Z O #  .XXDXDX",
"DXw jXmXX.@ k k A Y U U k Y ~.Z.D.D.D.D.D.R.;.H D % ] ..).DXDXDX",
"DX  f {.( u + > ` b l z c k ^ M.s.s.s.f.8.M ' < X { /.Y.DXDXDXDX",
"DXDX. t S h.G.F.Q.#.K U U U U I I I I I K O.W.F.F.F.DXDXDXDXDXDX",
"DXDXDXDXDXDXDXT.H.M.f.g.g.h.f.s.d.d.d.d.d.c.H.U.^.DXDXDXDXDXDXDX",
"DXDXDXDXDXDXDXDXDXDXDXDXDXDXDXDXDXDXDXDXDXDXDXDXDXDXDXDXDXDXDXDX",
"DXDXDXDXDXDXDXDXDXDXDXDXDXDXDXDXDXDXDXDXDXDXDXDXDXDXDXDXDXDXDXDX",
"DXDXDXDXDXDXDXDXDXDXDXDXDXDXDXDXDXDXDXDXDXDXDXDXDXDXDXDXDXDXDXDX"
};
