/* XPM */
static char *result[] = {
/* columns rows colors chars-per-pixel */
"32 32 249 2 ",
"   c #411C38",
".  c #411E3B",
"X  c #411F3B",
"o  c #1A2B4D",
"O  c #27214F",
"+  c #25274F",
"@  c #2F204A",
"#  c #2D244A",
"$  c #252B4D",
"%  c #262B4D",
"&  c #2B2C4C",
"*  c #2C2C4C",
"=  c #3A2B45",
"-  c #352D4B",
";  c #362D4B",
":  c #382D4B",
">  c #392D4B",
",  c #262150",
"<  c #232750",
"1  c #2A2D5F",
"2  c #19356F",
"3  c #1B356F",
"4  c #183672",
"5  c #22366F",
"6  c #333E6B",
"7  c #472E49",
"8  c #4C2E48",
"9  c #543047",
"0  c #543147",
"q  c #6C3144",
"w  c #743143",
"e  c #7C3242",
"r  c #7C3342",
"t  c #2F457A",
"y  c #2E467E",
"u  c #5A5151",
"i  c #585152",
"p  c #5A5152",
"a  c #5C5252",
"s  c #6A5652",
"d  c #6C5653",
"f  c #705B53",
"g  c #725C51",
"h  c #715C54",
"j  c #725D54",
"k  c #6D6B50",
"l  c #8E373E",
"z  c #9D353E",
"x  c #95393D",
"c  c #97383D",
"v  c #953B3D",
"b  c #A9363C",
"n  c #B7363B",
"m  c #B7373B",
"M  c #CA3837",
"N  c #CD3936",
"B  c #CC3837",
"V  c #CF3836",
"C  c #C83C36",
"Z  c #C43738",
"A  c #C13838",
"S  c #DE3B34",
"D  c #F63B2F",
"F  c #F63F2F",
"G  c #FF3D2A",
"H  c #FF3C2B",
"J  c #FF3E2B",
"K  c #E23F31",
"L  c #E63F31",
"P  c #995032",
"I  c #A14E2D",
"U  c #9C672A",
"Y  c #946830",
"T  c #FF6D0E",
"R  c #FF7000",
"E  c #FF7500",
"W  c #FF7406",
"Q  c #FF7C00",
"!  c #FF7409",
"~  c #FF740B",
"^  c #FF6617",
"/  c #FF7719",
"(  c #FF4727",
")  c #FF4923",
"_  c #FF4C23",
"`  c #FF4F22",
"'  c #FF4926",
"]  c #FF4229",
"[  c #FF412B",
"{  c #FF422A",
"}  c #FF422B",
"|  c #FF4428",
" . c #FF4528",
".. c #FF4628",
"X. c #FF442B",
"o. c #AF5552",
"O. c #B25752",
"+. c #B35952",
"@. c #B45951",
"#. c #B55A51",
"$. c #B55B52",
"%. c #B75D52",
"&. c #BD6352",
"*. c #BC6253",
"=. c #BD6354",
"-. c #B2635A",
";. c #C06653",
":. c #C66C54",
">. c #C76C54",
",. c #CB7255",
"<. c #CF7655",
"1. c #D27756",
"2. c #D47755",
"3. c #D17855",
"4. c #D57A56",
"5. c #D67B56",
"6. c #D77C55",
"7. c #D87C55",
"8. c #D97C55",
"9. c #D87D55",
"0. c #D87D57",
"q. c #FF8200",
"w. c #FF8300",
"e. c #FF8400",
"r. c #FF8700",
"t. c #FF8D00",
"y. c #FF870C",
"u. c #FF9B00",
"i. c #FF9D00",
"p. c #FF9F00",
"a. c #FF9F09",
"s. c #FF8013",
"d. c #FF8711",
"f. c #FF8810",
"g. c #FFA800",
"h. c #FFAF00",
"j. c #FFB100",
"k. c #FFB800",
"l. c #FFBA00",
"z. c #FFBB00",
"x. c #FFBD00",
"c. c #FFBF00",
"v. c #FFC000",
"b. c #FFC200",
"n. c #BF9047",
"m. c #B1B842",
"M. c #DB8057",
"N. c #E88A58",
"B. c #F39359",
"V. c #F1915A",
"C. c #F99759",
"Z. c #FD9859",
"A. c #C1A358",
"S. c #FFA55C",
"D. c #FFA95D",
"F. c #FFAA5D",
"G. c #B2CB54",
"H. c #005F9A",
"J. c #007087",
"K. c #00619C",
"L. c #007493",
"P. c #007693",
"I. c #006BA2",
"U. c #006DA3",
"Y. c #006DA4",
"T. c #006EA5",
"R. c #0071A0",
"E. c #0070A1",
"W. c #0071A6",
"Q. c #0071A7",
"!. c #0072A6",
"~. c #0079A7",
"^. c #007BA7",
"/. c #0078AA",
"(. c #0079AB",
"). c #628AA7",
"_. c #7385A9",
"`. c #7FDEBA",
"'. c #009EC2",
"]. c #00ADCA",
"[. c #1AA7C3",
"{. c #62A5C7",
"}. c #7AB3CF",
"|. c #00C2DA",
" X c #00C5D9",
".X c #00C9DB",
"XX c #00C9DF",
"oX c #00CEDE",
"OX c #00CDE1",
"+X c #00D4E5",
"@X c #00D7E6",
"#X c #00D9E8",
"$X c #00DAE9",
"%X c #00D8ED",
"&X c #00CAF3",
"*X c #00D0F3",
"=X c #00DFFF",
"-X c #29CFE0",
";X c #21D9E5",
":X c #00EAF0",
">X c #00EBF1",
",X c #04ECF2",
"<X c #0EEBF1",
"1X c #00E5FF",
"2X c #00EDFC",
"3X c #00EEFC",
"4X c #00EFFC",
"5X c #00F0FC",
"6X c #34E3E9",
"7X c #30ECF2",
"8X c #3FFDFD",
"9X c #45E4EA",
"0X c #59E7EC",
"qX c #4AEFF1",
"wX c #52F5F7",
"eX c #72F0F5",
"rX c #75F1F4",
"tX c #76F0F5",
"yX c #7AF0F5",
"uX c #8A95B4",
"iX c #8E98B6",
"pX c #9297B7",
"aX c #89D0BA",
"sX c #8DD2BF",
"dX c #84DFBE",
"fX c #84B1C8",
"gX c #9CDDD2",
"hX c #96E6D1",
"jX c #81E9ED",
"kX c #91EDF3",
"lX c #94EEF5",
"zX c #87F1F5",
"xX c #8CF2F6",
"cX c #86F3FC",
"vX c #84F5FC",
"bX c #91F1F5",
"nX c #9AF3F9",
"mX c #BFF5FD",
"MX c #BEF6FD",
"NX c #C5DDE9",
"BX c #C9DDE9",
"VX c #D1DEEA",
"CX c #CAE1ED",
"ZX c #DCEAF2",
"AX c #C0F3F7",
"SX c #FFFAF7",
"DX c #FFFFFE",
"FX c white",
"GX c None",
/* pixels */
"GXGXGXGXGXGXGXGXGXGXGXGXGXGXGXGXGXGXGXGXGXGXGXGXGXGXGXGXGXGXGXGX",
"GXGXGXGXGXGXGXGXGXGXGXGXa a a a a a a a GXGXGXGXGXGXGXGXGXGXGXGX",
"GXGXGXGXGXGXGXGXGXGXGXGXu i p p p p p u GXGXGXGXGXGXGXGXGXGXGXGX",
"GXGXGXGXGXGXGXGXGXGXGXGXh j f s d d d d GXGXGXGXGXGXGXGXGXGXGXGX",
"GXGXGXGXGXGXGXGXGX(.(.^.S.D.Z.2.8.8.8.8.~.(.(.GXGXGXGXGXGXGXGXGX",
"GXGXGXGXGXGXGXGXGXW.Y.R.S.F.C.<.4.6.9.7.E.T.!.GXGXGXGXGXGXGXGXGX",
"GXGXGXGXGXGXGXGXGX{.}.fXV.B.N.3.5.,.:.>.[.].'.GXGXGXGXGXGXGXGXGX",
"GXGXGXGXGXGXGX/.I.ZXFXDX<.<.1.4.0.=.o.O.qX8X;XU./.GXGXGXGXGXGXGX",
"GXGXGXGXGXGXGXQ.H.VXFXSX9.9.9.9.M.;.+.$.0XwX-XK.Q.GXGXGXGXGXGXGX",
"GXGXGXGXt 5 _.CXNXkXeXjX*.*.*.*.&.%.$.$.oX+X@XBXCX_.5 t GXGXGXGX",
"GXGXGXGXt 2 iXFXFXrX>X6X@.@.@.@.@.#.#.#. XXX#XFXFXiX2 t GXGXGXGX",
"GXGXGXGXt 3 uXFXFXyX,X9X-.-.-.-.-.-.-.-..XOX$XFXFXuX3 t GXGXGXGX",
"GXGXGXGXt 3 uXFXFXyX<X7X7X7X7X7X7X7X7X7X7X<XyXFXFXuX3 t GXGXGXGX",
"GXGXGXGXy 4 pXFXFXtX:X>X>X>X>X>X>X>X>X>X>X:XtXFXFXpX4 y GXGXGXGX",
"GXGXGXGX6 1 ).nXlXbXzXxXxXxXxXxXxXxXxXxXxXzXbXlXnX).1 6 GXGXGXGX",
"GXGXGXGX=   J.%X|.AXFXFXFXFXFXFXFXFXFXFXFXFXAX|.%XJ.  = GXGXGXGX",
"GXGXGXGX> X L.=X&XmXFXFXFXFXFXFXFXFXFXFXFXFXMX*X1XP.. > GXGXGXGX",
"GXGXGXGX> @ k G.m.hXcXxXxXxXxXxXxXxXxXxXxXvXgXn.A.g # > GXGXGXGX",
"GXGXGXGX> , U v.h.`.2X>X>X>X>X>X>X>X>X>X>X4XaXR q.I < > GXGXGXGX",
"GXGXGXGX> O Y b.j.dX3X7X7X7X7X7X7X7X7X7X7X5XsXE r.P + > GXGXGXGX",
"GXGXGXGX> $ v ` ] a.x.k.k.z.g.s.s.g.z.k.f.d./ | _ x $ > GXGXGXGX",
"GXGXGXGX> $ c ) H p.c.l.l.x.g.Q Q g.x.l.e.w.W [ ) c $ > GXGXGXGX",
"GXGXGXGX> % l  .D y.p.u.u.i.t.T T t.i.u.~ ! ^ F  .l % > GXGXGXGX",
"GXGXGXGX> * w M m D G H H H J } } J H H [ { F n M w * > GXGXGXGX",
"GXGXGXGX> & e S B X.' ( ................( ' X.B S e & > GXGXGXGX",
"GXGXGXGXGXGX9 r q C L K ................K L C q r 9 GXGXGXGXGXGX",
"GXGXGXGXGXGXGX& o z Z A ................A Z z o & GXGXGXGXGXGXGX",
"GXGXGXGXGXGXGX> & b V N ( ( ( ( ( ( ( ( N V b & > GXGXGXGXGXGXGX",
"GXGXGXGXGXGXGXGXGX7 8 8 0 0 0 0 0 0 0 0 8 8 7 GXGXGXGXGXGXGXGXGX",
"GXGXGXGXGXGXGXGXGX: ; ; - - - - - - - - ; ; : GXGXGXGXGXGXGXGXGX",
"GXGXGXGXGXGXGXGXGX> > > > > > > > > > > > > > GXGXGXGXGXGXGXGXGX",
"GXGXGXGXGXGXGXGXGXGXGXGXGXGXGXGXGXGXGXGXGXGXGXGXGXGXGXGXGXGXGXGX"
};
