/* XPM */
static char *result[] = {
/* columns rows colors chars-per-pixel */
"32 32 119 2 ",
"   c #120D24",
".  c #19162A",
"X  c #1C192D",
"o  c #1F1D31",
"O  c #211D31",
"+  c #242235",
"@  c #272638",
"#  c #282739",
"$  c #2C2B3D",
"%  c #47101E",
"&  c #441A27",
"*  c #441A28",
"=  c #501927",
"-  c #641620",
";  c #6B1921",
":  c #703833",
">  c #773F38",
",  c #734229",
"<  c #6F4933",
"1  c #664B3E",
"2  c #2E2E42",
"3  c #333344",
"4  c #373849",
"5  c #3A394A",
"6  c #2D3F5B",
"7  c #403F50",
"8  c #2E415E",
"9  c #3D4051",
"0  c #325064",
"q  c #504341",
"w  c #414253",
"e  c #474A5A",
"r  c #4A4D5D",
"t  c #755B4C",
"y  c #675D57",
"u  c #4E5362",
"i  c #515565",
"p  c #565C6B",
"a  c #585D6C",
"s  c #5B606F",
"d  c #5C6270",
"f  c #626673",
"g  c #656C7A",
"h  c #686C79",
"j  c #67707D",
"k  c #69727E",
"l  c #70737E",
"z  c #BC3B37",
"x  c #86563C",
"c  c #825D45",
"v  c #B75B4B",
"b  c #C3594A",
"n  c #D16A50",
"m  c #EE6C53",
"M  c #DE9366",
"N  c #E5AB72",
"B  c #EEB97F",
"V  c #FFC47F",
"C  c #5F6C81",
"Z  c #5D7085",
"A  c #587489",
"S  c #5E7B8C",
"D  c #6C7482",
"F  c #6E7885",
"G  c #627A8A",
"H  c #727A87",
"J  c #797C87",
"K  c #747E8C",
"L  c #7B7F8A",
"P  c #77808C",
"I  c #7D818C",
"U  c #708195",
"Y  c #7B8693",
"T  c #7F8A97",
"R  c #7D8B9F",
"E  c #7D97A8",
"W  c #848E99",
"Q  c #898E98",
"!  c #85929F",
"~  c #89949F",
"^  c #8A95A1",
"/  c #8E9AA6",
"(  c #919BA6",
")  c #929EA9",
"_  c #9BA0A8",
"`  c #9BABB5",
"'  c #9EAFB9",
"]  c #A3B3BD",
"[  c #ACB5BC",
"{  c #FFC681",
"}  c #A5B6C0",
"|  c #A7B8C2",
" . c #ABBCC5",
".. c #AEBFC8",
"X. c #AFC0C9",
"o. c #B1C3CC",
"O. c #B8C4CA",
"+. c #B7C9CF",
"@. c #B6C7D0",
"#. c #B6C8D0",
"$. c #BACCD3",
"%. c #BFD1D7",
"&. c #BED2D9",
"*. c #C1CED3",
"=. c #C3D5DC",
"-. c #C9D6DB",
";. c #C4D8DF",
":. c #CDD9DD",
">. c #C6DAE1",
",. c #CEDDE1",
"<. c #CFE1E5",
"1. c #CEE3E8",
"2. c #D1E2E6",
"3. c #D2E3E8",
"4. c #DAECEF",
"5. c #DBEFF3",
"6. c #DFF1F4",
"7. c #E0F0F5",
"8. c None",
/* pixels */
"8.8.8.8.8.8.8.8.8.8.8.8.8.8.8.8.w w 3 e 8.8.8.8.8.8.8.8.8.8.8.8.",
"8.8.8.8.8.8.8.8.8.8.8.8.8.8.5 l :.-.=.| $ 8.8.8.8.8.8.8.8.8.8.8.",
"8.8.8.8.8.8.$ f 8.8.8.8.8.w -.6.| o.` o 8.8.8.8.8.8.8.8.8.8.8.8.",
"8.8.8.8.8.X *.( 8.8.8.8.8._ 5.'  .=.d 8.8.8.8.8.8.8.8.8.8.8.8.8.",
"8.8.8.8.X [ 5.F 8.8.8.8.8.H =. . .&.F 8.8.8.8.8.+ + o X 8.8.8.8.",
"8.8.8.8.+ -.o.+.f 8.8.O p @. . . ...@.a O 8.8.J 2.*. .( X 8.8.8.",
"8.8.8.8.o ] ....$.d w  .o... . . . ...o. .9 h <...o.#.&.) O 8.8.",
"8.8.8.8.o ` +. . .#.$. . . . . . . . . ...$.#.| | +.] p g w 8.8.",
"8.8.8.8.8.r ] .. . . . . . . . . . . . . . . . ...] e 8.8.8.8.8.",
"8.8.8.8.8.8.u $. . . . . . . . . . . . . . . . .$.u 8.8.8.8.8.8.",
"8.8.8.8.8.8.e $. . . . . . . .| |  . . . . . . .$.e 8.8.8.8.8.8.",
"8.3 8.8.8.o | .. . . . . .} &.1.2.%.]  . . . . . .| O 8.8.8.8.8.",
"r :.# 8.8.a o. . . . . .| 2.` K U ' 1.|  . . . . .X.p 8.8.8.8.8.",
"2 >.O.J Q +. . . . . ...@.R y < , t E +... . . . ...+.k Q w 8.8.",
"5 ..$.4.3.X. . . . ...o.C q B { N : % G X.X. . . . ...%.1.:.5 8.",
"3 X. .] |  . . . . .X.X.6 c V M v b ; 0 X.X. . . . .| ..] 7.l 8.",
"8.i =.X.X. . . . . .X.X.8 x N v n m - 0 .... . . . . ...o. .:.7 ",
"8.+ / $...o. . . . ...o.C 1 > b m z * G o... . . . .o..... .,.7 ",
"8.8.$ p i ' .. . . . .X.$.A = ; - * S $... . . . ...' i 9 T %.4 ",
"8.8.8.8.8.e X. . . . . .X.$.G 0 0 G $... . . . . .o.e 8.8.. ^ 9 ",
"8.8.8.8.8.+  ... . . . . ...o.....o... . . . . ... .+ 8.8.8.+ 8.",
"8.8.8.8.8.8.w $. . . . . . ......... . . . . . .$.w 8.8.8.8.8.8.",
"8.8.8.8.8.8.g @. . . . . . . . . . . . . . . . .@.h 8.8.8.8.8.8.",
"8.8.8.8.8.I 2.|  . . . . . . . . . . . . . . . .| <.I 8.8.8.8.8.",
"8.8.u ~ P =. . ...#.$.o.X. . . . . . .X.o.$.$... ...*.+ 8.8.8.8.",
"8.8.2 / ;.o.X.+.} u w ^ ' o. . . . .o.` ^ w u ] o.X.` O 8.8.8.8.",
"8.8.8.  F ! T ^ u 8.8.. w ] X. . .o.] w . 8.8.r ] $.] O 8.8.8.8.",
"8.8.8.8.. X X o 8.8.8.8.8.u ..X. .=.F 8.8.8.8.8.p #.K . 8.8.8.8.",
"8.8.8.8.8.8.8.8.8.8.8.8.8.9  .o.o.=.k 8.8.8.8.8.g Y . 8.8.8.8.8.",
"8.8.8.8.8.8.8.8.8.8.8.8.X W @.o.../ # 8.8.8.8.8.w + 8.8.8.8.8.8.",
"8.8.8.8.8.8.8.8.8.8.8.@ T ' ` / w + 8.8.8.8.8.8.8.8.8.8.8.8.8.8.",
"8.8.8.8.8.8.8.8.8.8.8.8.5 $ $ # 8.8.8.8.8.8.8.8.8.8.8.8.8.8.8.8."
};
