/* XPM */
static char *_390ef9baf494395bcd2d43166e5898exY0KakqZ7frZAodV[] = {
/* columns rows colors chars-per-pixel */
"32 32 15 1 ",
"  c None",
". c #1C192D",
"X c #993045",
"o c #B94542",
"O c #D06E52",
"+ c #FF8E38",
"@ c #E09F6C",
"# c #FFBD7B",
"$ c #FF72C1",
"% c #00AEDD",
"& c #00DAF2",
"* c #EECA96",
"= c #FFE0B0",
"- c #FF9DC3",
"; c white",
/* pixels */
"                                ",
"                                ",
"            .   .   .   .       ",
"           .&. .-. .&. .-.      ",
"          .%&&.$--.%&&.$--.     ",
"        ...%&&.$--.%&&.$--...   ",
"       .--.%&&.$--.%&&.$--.&&.  ",
"       .--$.%...$...%...$.%&&.  ",
"        .$$...............%%.   ",
"         ..oX**@.oXOO@.@**..    ",
"        .+.oX@@@.oXOO@.@@@.     ",
"       .#+.OXXX@.oXOOO.@XX.     ",
"       .#+.OX;;X.oXOO@.X;;.     ",
"      .##+.OX;;X.oXOOO.X;;.     ",
"      .##+.OXXX..oXOOO..XX.     ",
"      .##+.OX@.;.oXOOO.;.@.     ",
"      .##+.OX@.X.XXooo.o.@.     ",
"      .+#+.OX@.XX.....Xo.@.     ",
"      ..#+.oX@.;;;X;;;;;.@.     ",
"     .+.++.oXO@.........@O..    ",
"     .+#.++.oXOOOOOOOOOOO.+.    ",
"     .+##..+.............++.    ",
"      .++###+++++++++++.++.     ",
"       ....############...      ",
"         .+#######=#==#.        ",
"         .+#########==#.        ",
"         .+####.#######.        ",
"          .++##....+###+.       ",
"           .+##.   ..###.       ",
"            ...    .+###.       ",
"                    .+##.       ",
"                     ...        "
};
